<?xml version="1.0" encoding="UTF-8"?>
<svg width="78px" height="78px" viewBox="0 0 78 78" version="1.1" xmlns="http://www.w3.org/2000/svg" xmlns:xlink="http://www.w3.org/1999/xlink">
    <title>Icon</title>
    <defs>
        <filter id="filter-1">
            <feColorMatrix in="SourceGraphic" type="matrix" values="0 0 0 0 0.917647 0 0 0 0 0.376471 0 0 0 0 0.654902 0 0 0 1.000000 0"></feColorMatrix>
        </filter>
    </defs>
    <g id="Symbols" stroke="none" stroke-width="1" fill="none" fill-rule="evenodd">
        <g id="Hero-Intro-Blade" transform="translate(-528.000000, -167.000000)">
            <g id="Tile-Blocks" transform="translate(120.000000, 132.000000)">
                <g id="Icon" transform="translate(306.000000, 0.000000)" filter="url(#filter-1)">
                    <g transform="translate(102.000000, 35.000000)">
                        <path d="M38.907,77.815 C17.453,77.815 0,60.361 0,38.908 C0,17.454 17.453,0 38.907,0 C60.36,0 77.814,17.454 77.814,38.908 C77.814,60.361 60.36,77.815 38.907,77.815 M38.907,2.758 C18.974,2.758 2.757,18.975 2.757,38.908 C2.757,58.84 18.974,75.057 38.907,75.057 C58.84,75.057 75.057,58.84 75.057,38.908 C75.057,18.975 58.84,2.758 38.907,2.758" id="Fill-1" fill="#4C7637"></path>
                        <g id="Gift-icon" transform="translate(18.000000, 16.000000)" fill="#EA60A7">
                            <path d="M27,18 L40,18 L40,11 L27,11 L27,18 Z M38,41 L38,41 L27,41 L27,20 L38,20 L38,41 Z M18,42 L24,42 L24,11 L18,11 L18,42 Z M15,18 L2,18 L2,11 L15,11 L15,18 L15,18 Z M4,41 L15,41 L15,20 L4,20 L4,41 Z M12.3890474,3.30595463 C12.7474797,2.67255092 13.3038992,2.23345451 13.956212,2.06857905 C14.139675,2.02285968 14.325686,2 14.509149,2 C14.9779988,2 15.438355,2.14763545 15.8444367,2.43623895 C16.5460128,2.93438954 17.8702588,5.42238026 19,8 C17.719921,7.9780928 16.4365295,7.89808391 15.3857793,7.76092582 C14.335029,7.62376772 13.5162406,7.42946042 13.1654526,7.17990888 C12.6006244,6.77891194 12.2081325,6.1550331 12.0620416,5.423428 C11.9150164,4.69191815 12.0313795,3.93945359 12.3890474,3.30595463 L12.3890474,3.30595463 Z M26.1562748,2.43623895 C26.5623741,2.14763545 27.0228465,2 27.4918996,2 C27.6754089,2 27.8614669,2.02285968 28.0449762,2.06857905 C28.6974537,2.23335926 29.2540136,2.67245567 29.6125364,3.30595463 C30.3508214,4.61381423 30.0024936,6.35210261 28.8360202,7.17990888 C28.1342671,7.67901195 25.5615688,7.95713809 23,8 C24.1299415,5.42228502 25.4545217,2.93438954 26.1562748,2.43623895 L26.1562748,2.43623895 Z M42,7.99064569 L31.821268,7.99064569 C32.9380957,6.35602874 33.0458893,4.14906811 31.9187134,2.37523242 C30.4060676,-0.00540786709 27.2307275,-0.716110892 24.8419356,0.791318583 C24.2374292,1.17288103 23.2283951,2.06499809 21.4535954,5.39172419 C21.2949232,5.68992727 21.1431499,5.98211473 21,6.26313031 C20.8568501,5.98211473 20.7050768,5.68992727 20.5464046,5.39172419 C18.7716049,2.06491215 17.762657,1.17288103 17.1580644,0.791318583 C14.7692725,-0.716110892 11.5939324,-0.0053219296 10.0812866,2.37523242 C9.34829029,3.52859945 9.11019584,4.89758363 9.41037939,6.22970063 C9.55439161,6.86993491 9.8148209,7.46470827 10.1752826,7.99064569 L0,7.99064569 L0,20.4701439 L1.51264573,20.4701439 L1.51264573,44 L40.4873543,44 L40.4873543,20.4701439 L42,20.4701439 L42,7.99064569 Z" id="Fill-1"></path>
                        </g>
                    </g>
                </g>
            </g>
        </g>
    </g>
</svg>