<?xml version="1.0" encoding="UTF-8"?>
<svg width="78px" height="78px" viewBox="0 0 78 78" version="1.1" xmlns="http://www.w3.org/2000/svg" xmlns:xlink="http://www.w3.org/1999/xlink">
    <title>Icon</title>
    <defs>
        <filter id="filter-1">
            <feColorMatrix in="SourceGraphic" type="matrix" values="0 0 0 0 0.917647 0 0 0 0 0.376471 0 0 0 0 0.654902 0 0 0 1.000000 0"></feColorMatrix>
        </filter>
        <polygon id="path-2" points="0 0.773 7.36208359 0.773 7.36208359 4.691 0 4.691"></polygon>
        <polygon id="path-4" points="0.551699301 0.255233835 5.79058846 0.255233835 5.79058846 6 0.551699301 6"></polygon>
    </defs>
    <g id="Symbols" stroke="none" stroke-width="1" fill="none" fill-rule="evenodd">
        <g id="Hero-Intro-Blade" transform="translate(-1140.000000, -167.000000)">
            <g id="Tile-Blocks" transform="translate(120.000000, 132.000000)">
                <g id="Icon" transform="translate(918.000000, 0.000000)" filter="url(#filter-1)">
                    <g transform="translate(102.000000, 35.000000)">
                        <path d="M38.907,77.815 C17.453,77.815 0,60.361 0,38.908 C0,17.454 17.453,0 38.907,0 C60.36,0 77.814,17.454 77.814,38.908 C77.814,60.361 60.36,77.815 38.907,77.815 M38.907,2.758 C18.974,2.758 2.757,18.975 2.757,38.908 C2.757,58.84 18.974,75.057 38.907,75.057 C58.84,75.057 75.057,58.84 75.057,38.908 C75.057,18.975 58.84,2.758 38.907,2.758" id="Fill-1" fill="#4C7637"></path>
                        <g id="Group-19" transform="translate(12.000000, 19.000000)">
                            <path d="M29.6501182,17.8565445 C29.6224282,12.3530357 40.3744446,10.3669993 41.5208094,16.0921258 C42.3459706,20.2204677 39.0148669,25.0619643 36.7775171,28.1305184 C35.9966599,29.1988299 35.3930185,30.5683143 34.0555928,30.4461404 C32.6074073,30.3126014 31.1619907,30.1875862 29.7165742,30.039841 C25.0314308,29.5625104 17.1065607,29.0624497 14.7224541,24.0788904 C12.6373991,19.7346133 18.2446186,17.3223887 21.3597405,17.6860692 C23.3617255,17.9218933 25.2086466,18.8623483 27.1552517,19.3453615 C29.2901486,19.8738347 30.5002004,16.5666152 28.3486895,16.0324595 C24.854215,15.1715596 21.813856,13.7111551 18.1144757,14.1856445 C14.3597154,14.6658164 10.715715,18.970316 11.0175357,22.8628338 C11.784548,32.7390322 25.817826,33.2646642 32.928611,33.8925813 C35.4207085,34.1113578 36.0880368,34.1767067 37.8601951,32.2474953 C39.6877332,30.2643001 41.2799067,27.9770907 42.5038035,25.5535012 C44.5943964,21.4223181 46.4800835,15.836413 43.3095817,11.7535312 C38.8016541,5.94884951 26.1833337,10.0118425 26.2248686,17.5241178 C26.2359446,19.7829146 29.6611942,20.1295476 29.6501182,17.8565445" id="Fill-1" fill="#F3B7D1"></path>
                            <g id="Group-5" transform="translate(0.000000, 21.000000)">
                                <mask id="mask-3" fill="white">
                                    <use xlink:href="#path-2"></use>
                                </mask>
                                <g id="Clip-4"></g>
                                <path d="M1.58213333,4.691 L5.4488,4.691 C6.40346667,4.691 7.25946667,4.058 7.35546667,2.915 C7.43813333,1.925 6.7368,0.773 5.77946667,0.773 L1.9128,0.773 C0.963466667,0.773 0.102133333,1.403 0.00613333333,2.543 C-0.0765333333,3.536 0.630133333,4.691 1.58213333,4.691" id="Fill-3" fill="#F3B7D1" mask="url(#mask-3)"></path>
                            </g>
                            <g id="Group-8" transform="translate(10.000000, 33.000000)">
                                <mask id="mask-5" fill="white">
                                    <use xlink:href="#path-4"></use>
                                </mask>
                                <g id="Clip-7"></g>
                                <path d="M3.9648,4.85573333 L4.2128,4.34906667 C4.0208,4.72773333 4.3568,4.11173333 4.41546667,4.02373333 C4.46346667,3.9464 4.83946667,3.50106667 4.5328,3.8344 L4.7248,3.65306667 C5.05013333,3.35973333 4.4048,3.8104 4.79413333,3.5944 C5.62613333,3.13306667 6.04746667,2.17306667 5.62346667,1.2664 C5.23413333,0.4504 4.1248,-0.0269333333 3.2928,0.437066667 C1.97813333,1.17306667 1.3168,2.32773333 0.6848,3.64506667 C0.2688,4.5064 0.887466667,5.58106667 1.7168,5.8904 C2.67413333,6.2424 3.55413333,5.71173333 3.9648,4.85573333" id="Fill-6" fill="#F3B7D1" mask="url(#mask-5)"></path>
                            </g>
                            <path d="M49.1276862,15.552816 C50.5299616,14.129881 51.9351401,12.7069459 53.3374155,11.2783418 C54.0545211,10.5498671 54.2809755,9.48975219 53.5551601,8.66206886 C52.9367654,7.94776681 51.5983618,7.71533519 50.8754497,8.44947896 C49.4702711,9.872414 48.070899,11.295349 46.6628172,12.7182841 C45.9428083,13.4467588 45.7221604,14.5068737 46.4421693,15.3373916 C47.0663705,16.0516936 48.4047741,16.2841253 49.1276862,15.552816" id="Fill-9" fill="#F3B7D1"></path>
                            <path d="M40.6138962,7.25755821 C41.9010468,5.63057791 42.6498798,3.87739003 42.9746748,1.89373614 C43.3505949,-0.402693056 39.4229812,-0.723699287 39.0500684,1.55626805 C38.8245163,2.92808955 38.2711618,4.07218868 37.3839902,5.19433867 C35.8923391,7.07647777 39.1252524,9.13695366 40.6138962,7.25755821" id="Fill-11" fill="#F3B7D1"></path>
                            <path d="M12.5161339,9.96443398 C12.1322879,9.62891449 11.748442,9.2905755 11.3920136,8.9240416 L10.9716109,8.43626957 L10.9868429,8.45318652 L10.7827344,8.04717973 C10.365378,7.11674753 9.0645668,6.75585261 8.12323032,7.17031787 C7.10268754,7.61861702 6.75539835,8.70412126 7.17275465,9.63173398 C7.66017807,10.7256967 8.558865,11.5602662 9.46973752,12.3553628 C10.2618006,13.0461382 11.3859208,13.2773365 12.2846078,12.5696442 C13.0462069,11.971912 13.3142897,10.6580289 12.5161339,9.96443398" id="Fill-13" fill="#F3B7D1"></path>
                            <path d="M21.0503265,1.9712113 C21.3896099,3.49276825 21.7089355,4.99836482 21.778788,6.56514287 C21.8187037,7.517446 22.8764697,8.12660079 23.6722889,7.97763717 C24.6352551,7.79675278 25.0394015,6.90563114 24.9969911,5.95864814 C24.9296333,4.39187009 24.6103077,2.88627352 24.2710243,1.3620565 C23.7845518,-0.811216277 20.5613592,-0.218021871 21.0503265,1.9712113" id="Fill-15" fill="#F3B7D1"></path>
                            <path d="M33.1288354,32 C33.1288354,32 16.7029034,30.5813061 17.0040919,24.4440365 C17.4307757,15.8098656 28.2484651,20.5596527 28.2484651,20.5596527 C28.2484651,20.5596527 32.9168879,12.1411233 38.4331007,16.0226697 C43.9493135,19.9070535 33.1288354,32 33.1288354,32" id="Fill-17" fill="#F3B7D1"></path>
                        </g>
                    </g>
                </g>
            </g>
        </g>
    </g>
</svg>