<?xml version="1.0" encoding="UTF-8"?>
<svg width="78px" height="78px" viewBox="0 0 78 78" version="1.1" xmlns="http://www.w3.org/2000/svg" xmlns:xlink="http://www.w3.org/1999/xlink">
    <title>Icon</title>
    <defs>
        <filter id="filter-1">
            <feColorMatrix in="SourceGraphic" type="matrix" values="0 0 0 0 0.917647 0 0 0 0 0.376471 0 0 0 0 0.654902 0 0 0 1.000000 0"></feColorMatrix>
        </filter>
    </defs>
    <g id="Symbols" stroke="none" stroke-width="1" fill="none" fill-rule="evenodd">
        <g id="Hero-Intro-Blade" transform="translate(-222.000000, -167.000000)">
            <g id="Icon" transform="translate(120.000000, 132.000000)" filter="url(#filter-1)">
                <g transform="translate(102.000000, 35.000000)">
                    <circle id="Oval" stroke="#F2C317" stroke-width="2.5" cx="39" cy="39" r="37.75"></circle>
                    <g id="MM-Flower" transform="translate(13.000000, 23.000000)" fill-rule="nonzero">
                        <path d="M26.5483871,0 C26.5483871,0 21.5806452,4.42780749 20,11.0695187 C22.516129,12.5454545 24.8709677,14.7593583 26.516129,18 C28.1612903,14.7593583 30.516129,12.5454545 33,11.0695187 C32.1935484,7.6684492 30.3225806,3.85026738 26.5483871,0" id="Path" fill="#ffffff"></path>
                        <path d="M9.599022,19 C3.97310513,20.2235294 0,23.5270588 0,23.5270588 C5.72127139,30.4705882 12.1100244,32 16.5599022,32 C17.9266504,32 19.1026895,31.8470588 20.0244499,31.6941176 C21.7090465,31.3882353 23.3300733,30.6235294 24.5061125,29.4305882 C25.4596577,28.4517647 25.9046455,27.5035294 26,26.6164706 C25.3643032,27.2588235 24.4107579,27.7788235 23.0440098,27.9929412 C22.6625917,28.0541176 22.2493888,28.0847059 21.8679707,28.0847059 C20.5647922,28.0847059 19.2616137,27.7482353 18.0537897,27.1976471 C15.7017115,26.0352941 11.9828851,23.6494118 9.599022,19" id="Path" fill="#ffffff"></path>
                        <path d="M8.67866324,8 C8.24678663,8 8,8.0316092 8,8.0316092 C8.09254499,12.2988506 8.98714653,15.6810345 10.2827763,18.3362069 C11.5167095,18.0517241 12.8123393,17.8936782 14.2005141,17.8936782 C16.0514139,17.8936782 18.0257069,18.2097701 20,19 C19.2904884,16.1235632 19.4138817,13.4367816 19.9691517,11.0344828 C15.4344473,8.25287356 10.437018,8 8.67866324,8" id="Shape" fill="#ffffff"></path>
                        <path d="M19.4807315,11 C18.8998066,13.3351955 18.7707122,15.9469274 19.5130051,18.7430168 C20.4489397,19.0810056 21.4171479,19.5418994 22.3853561,20.0949721 C23.2567435,20.6173184 24.0635836,21.2318436 24.6767821,22 C24.6767821,21.0167598 24.9026974,20.0642458 25.2899807,19.1424581 C25.5158959,18.6201117 25.7418111,18.1284916 26,17.6368715 C24.3217725,14.5335196 21.9657992,12.4134078 19.4807315,11" id="Shape" fill="#ffffff"></path>
                        <path d="M13.9456311,18 C12.5786408,18 11.2427184,18.1612903 10,18.4516129 C12.361165,23.3548387 15.9650485,25.8709677 18.2330097,27.0645161 C19.3825243,27.6774194 20.6563107,28 21.961165,28 C22.3339806,28 22.7378641,27.9677419 23.1106796,27.9032258 C24.4466019,27.6774194 25.3786408,27.1290323 26,26.4516129 C26,26.4516129 26,26.4516129 26,26.4516129 C24.6951456,26.4193548 23.607767,25.7419355 22.8,25.0322581 C21.9300971,24.2580645 21.2776699,23.2580645 20.7805825,22.1612903 C20.3456311,21.1290323 20.0038835,20.1290323 19.7553398,19.1290323 C17.7980583,18.3548387 15.8097087,18 13.9456311,18" id="Path" fill="#ffffff"></path>
                        <path d="M20,19 C20.238806,19.9559471 20.5671642,20.9118943 20.9850746,21.8986784 C21.4328358,22.9471366 22.0895522,23.9030837 22.9253731,24.6431718 C23.7014925,25.3215859 24.7462687,25.969163 26,26 C26,26 26,26 26,26 C25.1343284,25.0748899 24.8656716,23.8414097 24.8059701,22.7929515 C24.8059701,22.6387665 24.8059701,22.4537445 24.8059701,22.2995595 C24.238806,21.5286344 23.4925373,20.8810573 22.6865672,20.3876652 C21.761194,19.8017621 20.8656716,19.339207 20,19" id="Path" fill="#ffffff"></path>
                        <path d="M42.3691932,19 C39.9535452,23.6603774 36.2665037,26.0518868 33.9462103,27.1863208 C32.7701711,27.7688679 31.4669927,28.0754717 30.1320293,28.0754717 C29.7506112,28.0754717 29.3374083,28.0448113 28.9559902,27.9834906 C27.5892421,27.7688679 26.6356968,27.2476415 26,26.6037736 C26,26.6037736 26,26.6037736 26,26.6037736 C26.0953545,27.4929245 26.5403423,28.4740566 27.4938875,29.4245283 C28.6699267,30.620283 30.2909535,31.3867925 31.9755501,31.6933962 C32.8973105,31.8466981 34.0733496,32 35.4400978,32 C39.8899756,32 46.2787286,30.4976415 52,23.5070755 C51.9364303,23.5377358 47.99511,20.2264151 42.3691932,19" id="Path" fill="#ffffff"></path>
                        <path d="M44.2904884,8.03170029 C42.5012853,8.03170029 37.503856,8.31700288 33,11.074928 C33.6786632,14.1815562 33.5244216,16.907781 33.1233933,19 C35.066838,18.2391931 36.9794344,17.9221902 38.7994859,17.9221902 C40.1568123,17.9221902 41.4832905,18.0806916 42.7172237,18.3659942 C44.0128535,15.70317 44.9383033,12.3112392 45,8 C44.9691517,8.03170029 44.722365,8.03170029 44.2904884,8.03170029" id="Path" fill="#ffffff"></path>
                        <path d="M32.5211056,11 C29.9905273,12.4173669 27.6221656,14.5434174 26,17.6554622 C26.2595465,18.1484594 26.4866497,18.6414566 26.7137528,19.1652661 C27.0706293,20.0588235 27.2977325,21.0448179 27.3301758,22 C27.9465987,21.2296919 28.7576815,20.5826331 29.6336509,20.0896359 C30.6393935,19.5042017 31.6451362,19.0420168 32.6508788,18.6722689 C33.0401985,16.6694678 33.2348584,14.0196078 32.5211056,11" id="Path" fill="#ffffff"></path>
                        <path d="M26.5,18 C26.2073171,18.4745763 25.9512195,18.9491525 25.695122,19.4533898 C25.2560976,20.3432203 25,21.2627119 25,22.2118644 C25.1097561,22.3305085 25.2560976,22.4788136 25.3658537,22.5974576 C25.9146341,23.25 26.3902439,24.0805085 26.5,25 C26.6097561,24.0805085 27.0853659,23.25 27.6341463,22.5974576 C27.7439024,22.4491525 27.8536585,22.3305085 28,22.2118644 C28,21.2923729 27.7439024,20.3432203 27.304878,19.4830508 C27.0487805,18.9491525 26.7926829,18.4745763 26.5,18" id="Shape" fill="#ffffff"></path>
                        <path d="M25,22 C25,22.1666667 25,22.3666667 25,22.5333333 C25.05,23.6666667 25.3,25 26,26 C26,26 26,26 26,26 C25.975,25.7 25.975,25.4 26,25.1 C25.925,24.0666667 25.6,23.1666667 25.225,22.4 C25.175,22.3 25.1,22.1333333 25,22" id="Path" fill="#ffffff"></path>
                        <path d="M38.0543689,18 C36.2213592,18 34.2951456,18.3215434 32.3378641,19.0932476 C32.1825243,19.8649518 31.9961165,20.5401929 31.8407767,21.1189711 C31.3126214,22.7909968 30.3805825,24.3022508 29.0135922,25.3311897 C27.9572816,26.1350482 26.9631068,26.4565916 26.0621359,26.4565916 C26.031068,26.4565916 26,26.4565916 26,26.4565916 C26,26.4565916 26,26.4565916 26,26.4565916 C26.6213592,27.1318328 27.5533981,27.6784566 28.8893204,27.903537 C29.2621359,27.9678457 29.6660194,28 30.038835,28 C31.3126214,28 32.5864078,27.6463023 33.7669903,27.0675241 C36.0349515,25.8778135 39.638835,23.3697749 42,18.4823151 C40.7572816,18.192926 39.4213592,18 38.0543689,18" id="Path" fill="#ffffff"></path>
                        <path d="M32,19 C31.0882353,19.3668122 30.1764706,19.8253275 29.2647059,20.4061135 C28.4705882,20.8951965 27.7352941,21.5371179 27.1764706,22.30131 C27.1764706,22.4847162 27.1764706,22.6375546 27.1764706,22.8209607 C27.1176471,23.860262 26.8235294,25.0829694 26,26 C26.0294118,26 26.0588235,26 26.0588235,26 C26.9117647,26 27.8529412,25.6943231 28.8529412,24.930131 C30.1470588,23.9519651 31.0294118,22.5152838 31.5294118,20.9257642 C31.7058824,20.3755459 31.8529412,19.7336245 32,19" id="Path" fill="#ffffff"></path>
                        <path d="M27,22 C26.9268293,22.1322314 26.8292683,22.2975207 26.7560976,22.4297521 C26.3902439,23.1570248 26.0731707,24.0826446 26,25.107438 C26.0243902,25.4049587 26.0243902,25.6694215 26,26 C26,26 26,26 26,26 C26,26 26,26 26,26 C26,26 26,26 26,26 C26.7073171,25.0082645 26.9268293,23.6859504 26.9756098,22.5619835 C27,22.3636364 27,22.1652893 27,22" id="Path" fill="#ffffff"></path>
                        <path d="M26,25 C25.9682927,25.3333333 25.9682927,25.6296296 26,26 C26.0317073,25.6296296 26.0317073,25.2962963 26,25" id="Path" fill="#ffffff"></path>
                    </g>
                </g>
            </g>
        </g>
    </g>
</svg>