<?xml version="1.0" encoding="UTF-8"?>
<svg width="78px" height="78px" viewBox="0 0 78 78" version="1.1" xmlns="http://www.w3.org/2000/svg" xmlns:xlink="http://www.w3.org/1999/xlink">
    <title>Icon</title>
    <defs>
        <filter id="filter-1">
            <feColorMatrix in="SourceGraphic" type="matrix" values="0 0 0 0 0.917647 0 0 0 0 0.376471 0 0 0 0 0.654902 0 0 0 1.000000 0"></feColorMatrix>
        </filter>
        <polygon id="path-2" points="0 0 47 0 47 54 0 54"></polygon>
    </defs>
    <g id="Symbols" stroke="none" stroke-width="1" fill="none" fill-rule="evenodd">
        <g id="Hero-Intro-Blade" transform="translate(-834.000000, -167.000000)">
            <g id="Tile-Blocks" transform="translate(120.000000, 132.000000)">
                <g id="Icon" transform="translate(612.000000, 0.000000)" filter="url(#filter-1)">
                    <g transform="translate(102.000000, 35.000000)">
                        <path d="M38.907,77.815 C17.453,77.815 0,60.361 0,38.908 C0,17.454 17.453,0 38.907,0 C60.36,0 77.814,17.454 77.814,38.908 C77.814,60.361 60.36,77.815 38.907,77.815 M38.907,2.758 C18.974,2.758 2.757,18.975 2.757,38.908 C2.757,58.84 18.974,75.057 38.907,75.057 C58.84,75.057 75.057,58.84 75.057,38.908 C75.057,18.975 58.84,2.758 38.907,2.758" id="Fill-1" fill="#4C7637"></path>
                        <g id="Group-3" transform="translate(15.000000, 23.000000)">
                            <mask id="mask-3" fill="white">
                                <use xlink:href="#path-2"></use>
                            </mask>
                            <g id="Clip-2"></g>
                            <g id="Fill-2" mask="url(#mask-3)" fill="#FEFEFE">
                                <path d="M33.0428391,52.5344429 C30.4419105,49.9926468 25.5217439,43.5570156 25.4246504,41.741447 C25.3290281,39.9272643 25.7129887,39.2925083 25.7129887,39.2925083 C25.7129887,39.2925083 28.2668416,38.8143623 27.351809,36.6606267 C26.3882297,34.3932449 23.8843947,33.8471884 23.2091536,33.7584888 C22.5353837,33.6656315 23.0826378,33.3551831 23.0826378,33.3551831 L23.5342697,32.4224521 L23.4989629,31.7599774 L23.3062471,25.7713728 L21.9587072,25.1366168 C21.9587072,25.1366168 22.7280995,18.4203988 25.2319346,17.6941714 C27.7372407,16.9693299 30.2410758,17.1508867 31.5900868,19.1480122 C32.9376267,21.1423658 36.2123252,25.6799014 37.7540521,26.7706285 C39.295779,27.8585838 41.7981429,28.946539 40.2578871,26.5876858 C38.7161603,24.2288325 36.7919439,19.6912969 35.6341776,16.9693299 C34.4793536,14.2473629 34.0939219,9.89138413 34.0939219,9.89138413 L46.1335142,7.62261633 C46.1335142,7.62261633 47,6.98786028 47,6.26163283 L47,1.99851141 C47,1.99851141 46.32623,1.17942664 45.7480825,1.17942664 C45.1699349,1.17942664 12.7112882,0 12.7112882,0 C12.7112882,0 10.9783165,0.634756051 10.3045466,1.17942664 C9.62930553,1.72409722 1.92214226,6.62336062 1.53818166,6.89638888 C1.15274994,7.16941714 -0.388976936,7.89425866 0.0920771557,8.53040064 C0.574602361,9.16515669 2.01923575,10.0715551 2.88719267,10.1630265 C3.75367848,10.2558838 8.47301037,16.787773 8.66572623,19.1480122 C8.85844209,21.5068655 9.53221204,25.1366168 9.53221204,25.1366168 L7.99048516,25.4997305 L7.70214693,31.6698919 L7.97577403,32.9310885 L8.42299251,33.3551831 L7.89486279,33.6656315 C7.89486279,33.6656315 7.6117111,31.6338209 4.24139023,48.420208 L17.2195969,52.7915955 L33.0428391,52.5344429 Z" id="Fill-1"></path>
                            </g>
                        </g>
                    </g>
                </g>
            </g>
        </g>
    </g>
</svg>